<svg width="800" height="600" xmlns="http://www.w3.org/2000/svg"><defs><linearGradient id="aurora" x1="0%" y1="0%" x2="100%" y2="100%"><stop offset="0%" stop-color="#065f46"/><stop offset="50%" stop-color="#1e40af"/><stop offset="100%" stop-color="#6b21a8"/></linearGradient></defs><rect width="800" height="600" fill="url(#aurora)"/><rect width="800" height="60" fill="#000" opacity="0.3"/><rect y="60" width="800" height="120" fill="#10b981"/><g transform="translate(50,205)"><rect width="220" height="280" rx="16" fill="#111827"/><rect x="10" y="10" width="200" height="150" rx="12" fill="#064e3b"/><text x="110" y="95" font-size="30" text-anchor="middle">🌌</text><rect x="10" y="220" width="200" height="40" rx="10" fill="#059669"/></g><g transform="translate(290,205)"><rect width="220" height="280" rx="16" fill="#111827"/><rect x="10" y="10" width="200" height="150" rx="12" fill="#064e3b"/><text x="110" y="95" font-size="30" text-anchor="middle">🌠</text><rect x="10" y="220" width="200" height="40" rx="10" fill="#059669"/></g><g transform="translate(530,205)"><rect width="220" height="280" rx="16" fill="#111827"/><rect x="10" y="10" width="200" height="150" rx="12" fill="#064e3b"/><text x="110" y="95" font-size="30" text-anchor="middle">✨</text><rect x="10" y="220" width="200" height="40" rx="10" fill="#059669"/></g><rect y="500" width="800" height="100" fill="#000"/></svg>
