<svg width="800" height="600" xmlns="http://www.w3.org/2000/svg"><defs><linearGradient id="b1" x1="0%" y1="0%" x2="100%" y2="100%"><stop offset="0%" stop-color="#fdf2f8"/><stop offset="100%" stop-color="#fce7f3"/></linearGradient><linearGradient id="b2" x1="0%" x2="100%"><stop offset="0%" stop-color="#ec4899"/><stop offset="100%" stop-color="#f43f5e"/></linearGradient></defs><rect width="800" height="600" fill="url(#b1)"/><rect width="800" height="60" fill="url(#b2)"/><circle cx="35" cy="30" r="16" fill="#ec4899" stroke="#fff" stroke-width="3"/><rect x="60" y="22" width="120" height="16" rx="2" fill="#fff"/><rect x="670" y="20" width="100" height="20" rx="10" fill="#fff"/><rect y="60" width="800" height="120" fill="#f472b6"/><rect x="250" y="95" width="300" height="20" rx="4" fill="#fff"/><g transform="translate(350,130)"><rect width="100" height="35" rx="8" fill="rgba(255,255,255,0.2)"/><text x="50" y="23" font-family="Arial" font-size="16" font-weight="bold" fill="#fff" text-anchor="middle">7</text></g><g transform="translate(50,205)"><rect width="220" height="280" rx="16" fill="#fff"/><rect x="10" y="10" width="200" height="150" rx="12" fill="#fce7f3"/><text x="110" y="95" font-family="Arial" font-size="30" text-anchor="middle">🍓</text><rect x="10" y="170" width="160" height="12" rx="2" fill="#1e293b"/><rect x="10" y="190" width="120" height="16" rx="2" fill="#ec4899"/><rect x="10" y="220" width="200" height="40" rx="10" fill="#ec4899"/></g><g transform="translate(290,205)"><rect width="220" height="280" rx="16" fill="#fff"/><rect x="10" y="10" width="200" height="150" rx="12" fill="#fce7f3"/><text x="110" y="95" font-family="Arial" font-size="30" text-anchor="middle">💝</text><rect x="10" y="170" width="170" height="12" rx="2" fill="#1e293b"/><rect x="10" y="190" width="130" height="16" rx="2" fill="#ec4899"/><rect x="10" y="220" width="200" height="40" rx="10" fill="#ec4899"/></g><g transform="translate(530,205)"><rect width="220" height="280" rx="16" fill="#fff"/><rect x="10" y="10" width="200" height="150" rx="12" fill="#fce7f3"/><text x="110" y="95" font-family="Arial" font-size="30" text-anchor="middle">🌸</text><rect x="10" y="170" width="150" height="12" rx="2" fill="#1e293b"/><rect x="10" y="190" width="110" height="16" rx="2" fill="#ec4899"/><rect x="10" y="220" width="200" height="40" rx="10" fill="#ec4899"/></g><rect y="500" width="800" height="100" fill="url(#b2)"/><circle cx="360" cy="565" r="12" fill="rgba(255,255,255,0.2)"/><circle cx="400" cy="565" r="12" fill="rgba(255,255,255,0.2)"/><circle cx="440" cy="565" r="12" fill="rgba(255,255,255,0.2)"/></svg>
