<svg width="800" height="600" xmlns="http://www.w3.org/2000/svg"><rect width="800" height="600" fill="#18181b"/><rect width="800" height="60" fill="#000" opacity="0.5"/><rect y="60" width="800" height="120" fill="#27272a"/><g transform="translate(50,205)"><rect width="220" height="280" rx="16" fill="#3f3f46" stroke="#52525b" stroke-width="1"/><rect x="10" y="10" width="200" height="150" rx="12" fill="#27272a"/><text x="110" y="95" font-size="30" text-anchor="middle">🖤</text><rect x="10" y="220" width="200" height="40" rx="10" fill="#52525b"/></g><g transform="translate(290,205)"><rect width="220" height="280" rx="16" fill="#3f3f46" stroke="#52525b" stroke-width="1"/><rect x="10" y="10" width="200" height="150" rx="12" fill="#27272a"/><text x="110" y="95" font-size="30" text-anchor="middle">⚫</text><rect x="10" y="220" width="200" height="40" rx="10" fill="#52525b"/></g><g transform="translate(530,205)"><rect width="220" height="280" rx="16" fill="#3f3f46" stroke="#52525b" stroke-width="1"/><rect x="10" y="10" width="200" height="150" rx="12" fill="#27272a"/><text x="110" y="95" font-size="30" text-anchor="middle">🔲</text><rect x="10" y="220" width="200" height="40" rx="10" fill="#52525b"/></g><rect y="500" width="800" height="100" fill="#000"/></svg>
