<svg width="800" height="600" xmlns="http://www.w3.org/2000/svg"><defs><linearGradient id="c1" x1="0%" y1="0%" x2="100%" y2="100%"><stop offset="0%" stop-color="#fffbeb"/><stop offset="100%" stop-color="#fef3c7"/></linearGradient></defs><rect width="800" height="600" fill="url(#c1)"/><rect width="800" height="60" fill="#92400e"/><circle cx="35" cy="30" r="16" fill="#b45309"/><rect x="60" y="22" width="120" height="16" rx="2" fill="#fff"/><rect x="670" y="20" width="100" height="20" rx="10" fill="#fff"/><rect y="60" width="800" height="120" fill="#b45309"/><rect x="250" y="95" width="300" height="20" rx="4" fill="#fff"/><g transform="translate(50,205)"><rect width="220" height="280" rx="16" fill="#fff"/><rect x="10" y="10" width="200" height="150" rx="12" fill="#fed7aa"/><text x="110" y="95" font-family="Arial" font-size="30" text-anchor="middle">☕</text><rect x="10" y="170" width="160" height="12" rx="2" fill="#1e293b"/><rect x="10" y="190" width="120" height="16" rx="2" fill="#92400e"/><rect x="10" y="220" width="200" height="40" rx="10" fill="#92400e"/></g><g transform="translate(290,205)"><rect width="220" height="280" rx="16" fill="#fff"/><rect x="10" y="10" width="200" height="150" rx="12" fill="#fed7aa"/><text x="110" y="95" font-family="Arial" font-size="30" text-anchor="middle">🍰</text><rect x="10" y="170" width="170" height="12" rx="2" fill="#1e293b"/><rect x="10" y="190" width="130" height="16" rx="2" fill="#92400e"/><rect x="10" y="220" width="200" height="40" rx="10" fill="#92400e"/></g><g transform="translate(530,205)"><rect width="220" height="280" rx="16" fill="#fff"/><rect x="10" y="10" width="200" height="150" rx="12" fill="#fed7aa"/><text x="110" y="95" font-family="Arial" font-size="30" text-anchor="middle">🥐</text><rect x="10" y="170" width="150" height="12" rx="2" fill="#1e293b"/><rect x="10" y="190" width="110" height="16" rx="2" fill="#92400e"/><rect x="10" y="220" width="200" height="40" rx="10" fill="#92400e"/></g><rect y="500" width="800" height="100" fill="#78350f"/></svg>
