<svg width="800" height="600" xmlns="http://www.w3.org/2000/svg"><rect width="800" height="600" fill="#0c0a09"/><rect width="800" height="60" fill="#000" opacity="0.5"/><rect y="60" width="800" height="120" fill="#7c3aed"/><circle cx="100" cy="100" r="2" fill="#fff" opacity="0.8"/><circle cx="200" cy="80" r="1" fill="#fff" opacity="0.6"/><circle cx="500" cy="120" r="2" fill="#fff" opacity="0.7"/><circle cx="700" cy="90" r="1" fill="#fff" opacity="0.9"/><g transform="translate(50,205)"><rect width="220" height="280" rx="16" fill="#18181b" stroke="#a855f7" stroke-width="1"/><rect x="10" y="10" width="200" height="150" rx="12" fill="#2e1065"/><text x="110" y="95" font-size="30" text-anchor="middle">🌌</text><rect x="10" y="220" width="200" height="40" rx="10" fill="#7c3aed"/></g><g transform="translate(290,205)"><rect width="220" height="280" rx="16" fill="#18181b" stroke="#a855f7" stroke-width="1"/><rect x="10" y="10" width="200" height="150" rx="12" fill="#2e1065"/><text x="110" y="95" font-size="30" text-anchor="middle">🪐</text><rect x="10" y="220" width="200" height="40" rx="10" fill="#7c3aed"/></g><g transform="translate(530,205)"><rect width="220" height="280" rx="16" fill="#18181b" stroke="#a855f7" stroke-width="1"/><rect x="10" y="10" width="200" height="150" rx="12" fill="#2e1065"/><text x="110" y="95" font-size="30" text-anchor="middle">⭐</text><rect x="10" y="220" width="200" height="40" rx="10" fill="#7c3aed"/></g><rect y="500" width="800" height="100" fill="#000"/></svg>
