<svg width="800" height="600" xmlns="http://www.w3.org/2000/svg"><rect width="800" height="600" fill="#f1f5f9"/><rect width="800" height="60" fill="#cbd5e1"/><rect y="60" width="800" height="120" fill="#e2e8f0"/><circle cx="150" cy="80" r="40" fill="#fff" opacity="0.3"/><circle cx="650" cy="150" r="60" fill="#94a3b8" opacity="0.2"/><g transform="translate(50,205)"><rect width="220" height="280" rx="16" fill="#fff" stroke="#cbd5e1" stroke-width="2"/><rect x="10" y="10" width="200" height="150" rx="12" fill="#f1f5f9"/><text x="110" y="95" font-size="30" text-anchor="middle">💎</text><rect x="10" y="220" width="200" height="40" rx="10" fill="#475569"/></g><g transform="translate(290,205)"><rect width="220" height="280" rx="16" fill="#fff" stroke="#cbd5e1" stroke-width="2"/><rect x="10" y="10" width="200" height="150" rx="12" fill="#f1f5f9"/><text x="110" y="95" font-size="30" text-anchor="middle">✨</text><rect x="10" y="220" width="200" height="40" rx="10" fill="#475569"/></g><g transform="translate(530,205)"><rect width="220" height="280" rx="16" fill="#fff" stroke="#cbd5e1" stroke-width="2"/><rect x="10" y="10" width="200" height="150" rx="12" fill="#f1f5f9"/><text x="110" y="95" font-size="30" text-anchor="middle">💍</text><rect x="10" y="220" width="200" height="40" rx="10" fill="#475569"/></g><rect y="500" width="800" height="100" fill="#334155"/></svg>
