<svg width="800" height="600" xmlns="http://www.w3.org/2000/svg"><rect width="800" height="600" fill="#450a0a"/><rect width="800" height="60" fill="#7f1d1d"/><rect y="60" width="800" height="120" fill="#991b1b"/><g transform="translate(50,205)"><rect width="220" height="280" rx="16" fill="#450a0a" stroke="#c2410c" stroke-width="1"/><rect x="10" y="10" width="200" height="150" rx="12" fill="#7c2d12"/><text x="110" y="95" font-size="30" text-anchor="middle">🐉</text><rect x="10" y="220" width="200" height="40" rx="10" fill="#b91c1c"/></g><g transform="translate(290,205)"><rect width="220" height="280" rx="16" fill="#450a0a" stroke="#c2410c" stroke-width="1"/><rect x="10" y="10" width="200" height="150" rx="12" fill="#7c2d12"/><text x="110" y="95" font-size="30" text-anchor="middle">🔥</text><rect x="10" y="220" width="200" height="40" rx="10" fill="#b91c1c"/></g><g transform="translate(530,205)"><rect width="220" height="280" rx="16" fill="#450a0a" stroke="#c2410c" stroke-width="1"/><rect x="10" y="10" width="200" height="150" rx="12" fill="#7c2d12"/><text x="110" y="95" font-size="30" text-anchor="middle">⚔️</text><rect x="10" y="220" width="200" height="40" rx="10" fill="#b91c1c"/></g><rect y="500" width="800" height="100" fill="#1c0000"/></svg>
