<svg width="800" height="600" xmlns="http://www.w3.org/2000/svg"><rect width="800" height="600" fill="#faf5ff"/><rect width="800" height="60" fill="#8b5cf6"/><circle cx="35" cy="30" r="16" fill="#a78bfa"/><rect x="60" y="22" width="120" height="16" rx="2" fill="#fff"/><rect y="60" width="800" height="120" fill="#a78bfa"/><rect x="250" y="95" width="300" height="20" rx="4" fill="#fff"/><g transform="translate(50,205)"><rect width="220" height="280" rx="16" fill="#fff"/><rect x="10" y="10" width="200" height="150" rx="12" fill="#e9d5ff"/><text x="110" y="95" font-size="30" text-anchor="middle">💜</text><rect x="10" y="170" width="160" height="12" rx="2" fill="#1e293b"/><rect x="10" y="220" width="200" height="40" rx="10" fill="#8b5cf6"/></g><g transform="translate(290,205)"><rect width="220" height="280" rx="16" fill="#fff"/><rect x="10" y="10" width="200" height="150" rx="12" fill="#e9d5ff"/><text x="110" y="95" font-size="30" text-anchor="middle">🌸</text><rect x="10" y="170" width="170" height="12" rx="2" fill="#1e293b"/><rect x="10" y="220" width="200" height="40" rx="10" fill="#8b5cf6"/></g><g transform="translate(530,205)"><rect width="220" height="280" rx="16" fill="#fff"/><rect x="10" y="10" width="200" height="150" rx="12" fill="#e9d5ff"/><text x="110" y="95" font-size="30" text-anchor="middle">💐</text><rect x="10" y="170" width="150" height="12" rx="2" fill="#1e293b"/><rect x="10" y="220" width="200" height="40" rx="10" fill="#8b5cf6"/></g><rect y="500" width="800" height="100" fill="#7c3aed"/></svg>
