<svg width="800" height="600" xmlns="http://www.w3.org/2000/svg"><defs><linearGradient id="m1" x1="0%" y1="0%" x2="100%" y2="100%"><stop offset="0%" stop-color="#0f172a"/><stop offset="100%" stop-color="#1e1b4b"/></linearGradient><linearGradient id="m2" x1="0%" x2="100%"><stop offset="0%" stop-color="#1e40af"/><stop offset="100%" stop-color="#4f46e5"/></linearGradient></defs><rect width="800" height="600" fill="url(#m1)"/><rect width="800" height="60" fill="#1e40af" opacity="0.5"/><circle cx="35" cy="30" r="16" fill="#3b82f6"/><rect x="60" y="22" width="120" height="16" rx="2" fill="#fff"/><rect x="670" y="20" width="100" height="20" rx="10" fill="#3b82f6"/><rect y="60" width="800" height="120" fill="url(#m2)"/><circle cx="150" cy="80" r="60" fill="#fff" opacity="0.05"/><circle cx="650" cy="150" r="80" fill="#60a5fa" opacity="0.05"/><rect x="250" y="95" width="300" height="20" rx="4" fill="#fff"/><g transform="translate(50,205)"><rect width="220" height="280" rx="16" fill="#1e293b"/><rect x="10" y="10" width="200" height="150" rx="12" fill="#1e3a8a"/><text x="110" y="95" font-family="Arial" font-size="30" text-anchor="middle">🌙</text><rect x="10" y="170" width="160" height="12" rx="2" fill="#e2e8f0"/><rect x="10" y="190" width="120" height="16" rx="2" fill="#3b82f6"/><rect x="10" y="220" width="200" height="40" rx="10" fill="#2563eb"/></g><g transform="translate(290,205)"><rect width="220" height="280" rx="16" fill="#1e293b"/><rect x="10" y="10" width="200" height="150" rx="12" fill="#1e3a8a"/><text x="110" y="95" font-family="Arial" font-size="30" text-anchor="middle">✨</text><rect x="10" y="170" width="170" height="12" rx="2" fill="#e2e8f0"/><rect x="10" y="190" width="130" height="16" rx="2" fill="#3b82f6"/><rect x="10" y="220" width="200" height="40" rx="10" fill="#2563eb"/></g><g transform="translate(530,205)"><rect width="220" height="280" rx="16" fill="#1e293b"/><rect x="10" y="10" width="200" height="150" rx="12" fill="#1e3a8a"/><text x="110" y="95" font-family="Arial" font-size="30" text-anchor="middle">💫</text><rect x="10" y="170" width="150" height="12" rx="2" fill="#e2e8f0"/><rect x="10" y="190" width="110" height="16" rx="2" fill="#3b82f6"/><rect x="10" y="220" width="200" height="40" rx="10" fill="#2563eb"/></g><rect y="500" width="800" height="100" fill="#0f172a"/><circle cx="360" cy="565" r="12" fill="#3b82f6" opacity="0.3"/><circle cx="400" cy="565" r="12" fill="#3b82f6" opacity="0.3"/><circle cx="440" cy="565" r="12" fill="#3b82f6" opacity="0.3"/></svg>
