<svg width="800" height="600" xmlns="http://www.w3.org/2000/svg"><rect width="800" height="600" fill="#f0fdfa"/><rect width="800" height="60" fill="#14b8a6"/><circle cx="35" cy="30" r="16" fill="#2dd4bf"/><rect y="60" width="800" height="120" fill="#2dd4bf"/><g transform="translate(50,205)"><rect width="220" height="280" rx="16" fill="#fff"/><rect x="10" y="10" width="200" height="150" rx="12" fill="#ccfbf1"/><text x="110" y="95" font-size="30" text-anchor="middle">🍃</text><rect x="10" y="220" width="200" height="40" rx="10" fill="#0d9488"/></g><g transform="translate(290,205)"><rect width="220" height="280" rx="16" fill="#fff"/><rect x="10" y="10" width="200" height="150" rx="12" fill="#ccfbf1"/><text x="110" y="95" font-size="30" text-anchor="middle">🌱</text><rect x="10" y="220" width="200" height="40" rx="10" fill="#0d9488"/></g><g transform="translate(530,205)"><rect width="220" height="280" rx="16" fill="#fff"/><rect x="10" y="10" width="200" height="150" rx="12" fill="#ccfbf1"/><text x="110" y="95" font-size="30" text-anchor="middle">💚</text><rect x="10" y="220" width="200" height="40" rx="10" fill="#0d9488"/></g><rect y="500" width="800" height="100" fill="#0f766e"/></svg>
