<svg width="800" height="600" xmlns="http://www.w3.org/2000/svg">
  <!-- Modern Professional Template Preview -->
  <defs>
    <linearGradient id="hero3" x1="0%" y1="0%" x2="100%" y2="100%">
      <stop offset="0%" style="stop-color:#1e293b;stop-opacity:1" />
      <stop offset="50%" style="stop-color:#334155;stop-opacity:1" />
      <stop offset="100%" style="stop-color:#1f2937;stop-opacity:1" />
    </linearGradient>
  </defs>
  
  <rect width="800" height="600" fill="#f9fafb"/>
  
  <!-- Professional Navbar -->
  <rect width="800" height="70" fill="#ffffff"/>
  <rect x="0" y="69" width="800" height="1" fill="#e5e7eb"/>
  <rect x="30" y="20" width="50" height="30" rx="4" fill="#1e293b"/>
  <rect x="90" y="25" width="120" height="14" rx="2" fill="#1e293b"/>
  <rect x="90" y="43" width="80" height="8" rx="2" fill="#64748b"/>
  <rect x="650" y="25" width="120" height="20" rx="8" fill="#1e293b"/>
  
  <!-- Hero -->
  <rect x="0" y="70" width="800" height="140" fill="url(#hero3)"/>
  <rect x="50" y="100" width="400" height="20" rx="4" fill="#ffffff"/>
  <rect x="50" y="130" width="300" height="12" rx="2" fill="#cbd5e1"/>
  <rect x="50" y="150" width="150" height="10" rx="2" fill="#94a3b8"/>
  
  <!-- Product Grid -->
  <g transform="translate(50, 240)">
    <rect width="220" height="280" rx="12" fill="#ffffff" stroke="#e5e7eb" stroke-width="2"/>
    <rect x="10" y="10" width="200" height="150" rx="6" fill="#f1f5f9"/>
    <rect x="10" y="170" width="160" height="12" rx="2" fill="#1e293b"/>
    <rect x="10" y="190" width="110" height="16" rx="2" fill="#1e293b"/>
    <rect x="10" y="220" width="200" height="40" rx="8" fill="#1e293b"/>
    
    <g transform="translate(240, 0)">
      <rect width="220" height="280" rx="12" fill="#ffffff" stroke="#e5e7eb" stroke-width="2"/>
      <rect x="10" y="10" width="200" height="150" rx="6" fill="#f1f5f9"/>
      <rect x="10" y="170" width="170" height="12" rx="2" fill="#1e293b"/>
      <rect x="10" y="190" width="120" height="16" rx="2" fill="#1e293b"/>
      <rect x="10" y="220" width="200" height="40" rx="8" fill="#1e293b"/>
    </g>
    
    <g transform="translate(480, 0)">
      <rect width="220" height="280" rx="12" fill="#ffffff" stroke="#e5e7eb" stroke-width="2"/>
      <rect x="10" y="10" width="200" height="150" rx="6" fill="#f1f5f9"/>
      <rect x="10" y="170" width="150" height="12" rx="2" fill="#1e293b"/>
      <rect x="10" y="190" width="100" height="16" rx="2" fill="#1e293b"/>
      <rect x="10" y="220" width="200" height="40" rx="8" fill="#1e293b"/>
    </g>
  </g>
</svg>
