<svg width="800" height="600" xmlns="http://www.w3.org/2000/svg"><defs><linearGradient id="opal" x1="0%" y1="0%" x2="100%" y2="100%"><stop offset="0%" stop-color="#f9a8d4"/><stop offset="50%" stop-color="#c084fc"/><stop offset="100%" stop-color="#60a5fa"/></linearGradient></defs><rect width="800" height="600" fill="#fdf4ff"/><rect width="800" height="60" fill="url(#opal)"/><rect y="60" width="800" height="120" fill="url(#opal)"/><g transform="translate(50,205)"><rect width="220" height="280" rx="16" fill="#fff" stroke="#e9d5ff" stroke-width="2"/><rect x="10" y="10" width="200" height="150" rx="12" fill="#f3e8ff"/><text x="110" y="95" font-size="30" text-anchor="middle">✨</text><rect x="10" y="220" width="200" height="40" rx="10" fill="url(#opal)"/></g><g transform="translate(290,205)"><rect width="220" height="280" rx="16" fill="#fff" stroke="#e9d5ff" stroke-width="2"/><rect x="10" y="10" width="200" height="150" rx="12" fill="#f3e8ff"/><text x="110" y="95" font-size="30" text-anchor="middle">🔮</text><rect x="10" y="220" width="200" height="40" rx="10" fill="url(#opal)"/></g><g transform="translate(530,205)"><rect width="220" height="280" rx="16" fill="#fff" stroke="#e9d5ff" stroke-width="2"/><rect x="10" y="10" width="200" height="150" rx="12" fill="#f3e8ff"/><text x="110" y="95" font-size="30" text-anchor="middle">💎</text><rect x="10" y="220" width="200" height="40" rx="10" fill="url(#opal)"/></g><rect y="500" width="800" height="100" fill="#7c3aed"/></svg>
