<svg width="800" height="600" xmlns="http://www.w3.org/2000/svg"><defs><linearGradient id="fire" x1="0%" y1="0%" x2="100%" y2="100%"><stop offset="0%" stop-color="#ea580c"/><stop offset="50%" stop-color="#dc2626"/><stop offset="100%" stop-color="#ca8a04"/></linearGradient></defs><rect width="800" height="600" fill="url(#fire)" opacity="0.3"/><rect width="800" height="600" fill="#7c2d12"/><rect width="800" height="60" fill="#ea580c"/><rect y="60" width="800" height="120" fill="#f97316"/><g transform="translate(50,205)"><rect width="220" height="280" rx="16" fill="#1c1917"/><rect x="10" y="10" width="200" height="150" rx="12" fill="#7c2d12"/><text x="110" y="95" font-size="30" text-anchor="middle">🔥</text><rect x="10" y="220" width="200" height="40" rx="10" fill="#ea580c"/></g><g transform="translate(290,205)"><rect width="220" height="280" rx="16" fill="#1c1917"/><rect x="10" y="10" width="200" height="150" rx="12" fill="#7c2d12"/><text x="110" y="95" font-size="30" text-anchor="middle">🦅</text><rect x="10" y="220" width="200" height="40" rx="10" fill="#ea580c"/></g><g transform="translate(530,205)"><rect width="220" height="280" rx="16" fill="#1c1917"/><rect x="10" y="10" width="200" height="150" rx="12" fill="#7c2d12"/><text x="110" y="95" font-size="30" text-anchor="middle">⚡</text><rect x="10" y="220" width="200" height="40" rx="10" fill="#ea580c"/></g><rect y="500" width="800" height="100" fill="#0a0a0a"/></svg>
