<svg width="800" height="600" xmlns="http://www.w3.org/2000/svg"><rect width="800" height="600" fill="#fff1f2"/><rect width="800" height="60" fill="#fb7185"/><rect y="60" width="800" height="120" fill="#f472b6"/><g transform="translate(50,205)"><rect width="220" height="280" rx="16" fill="#fff" stroke="#fda4af" stroke-width="2"/><rect x="10" y="10" width="200" height="150" rx="12" fill="#ffe4e6"/><text x="110" y="95" font-size="30" text-anchor="middle">🌸</text><rect x="10" y="220" width="200" height="40" rx="10" fill="#e11d48"/></g><g transform="translate(290,205)"><rect width="220" height="280" rx="16" fill="#fff" stroke="#fda4af" stroke-width="2"/><rect x="10" y="10" width="200" height="150" rx="12" fill="#ffe4e6"/><text x="110" y="95" font-size="30" text-anchor="middle">💕</text><rect x="10" y="220" width="200" height="40" rx="10" fill="#e11d48"/></g><g transform="translate(530,205)"><rect width="220" height="280" rx="16" fill="#fff" stroke="#fda4af" stroke-width="2"/><rect x="10" y="10" width="200" height="150" rx="12" fill="#ffe4e6"/><text x="110" y="95" font-size="30" text-anchor="middle">💖</text><rect x="10" y="220" width="200" height="40" rx="10" fill="#e11d48"/></g><rect y="500" width="800" height="100" fill="#be123c"/></svg>
