<svg width="800" height="600" xmlns="http://www.w3.org/2000/svg">
  <defs>
    <linearGradient id="sunset-bg" x1="0%" y1="0%" x2="100%" y2="100%">
      <stop offset="0%" style="stop-color:#fff7ed;stop-opacity:1" />
      <stop offset="50%" style="stop-color:#ffedd5;stop-opacity:1" />
      <stop offset="100%" style="stop-color:#fef3c7;stop-opacity:1" />
    </linearGradient>
    <linearGradient id="sunset-nav" x1="0%" y1="0%" x2="100%" y2="0%">
      <stop offset="0%" style="stop-color:#f97316;stop-opacity:1" />
      <stop offset="50%" style="stop-color:#f59e0b;stop-opacity:1" />
      <stop offset="100%" style="stop-color:#eab308;stop-opacity:1" />
    </linearGradient>
    <linearGradient id="sunset-hero" x1="0%" y1="0%" x2="0%" y2="100%">
      <stop offset="0%" style="stop-color:#fb923c;stop-opacity:1" />
      <stop offset="50%" style="stop-color:#fbbf24;stop-opacity:1" />
      <stop offset="100%" style="stop-color:#facc15;stop-opacity:1" />
    </linearGradient>
  </defs>
  
  <rect width="800" height="600" fill="url(#sunset-bg)"/>
  
  <!-- Navbar -->
  <rect width="800" height="60" fill="url(#sunset-nav)"/>
  <circle cx="35" cy="30" r="16" fill="#fb923c" stroke="#ffffff" stroke-width="3"/>
  <rect x="60" y="22" width="120" height="16" rx="2" fill="#ffffff"/>
  <rect x="670" y="20" width="100" height="20" rx="10" fill="#ffffff"/>
  
  <!-- Hero -->
  <rect x="0" y="60" width="800" height="120" fill="url(#sunset-hero)"/>
  
  <!-- Sun glow -->
  <circle cx="150" cy="80" r="60" fill="#ffffff" opacity="0.1"/>
  <circle cx="650" cy="150" r="80" fill="#fb923c" opacity="0.1"/>
  
  <rect x="250" y="95" width="300" height="20" rx="4" fill="#ffffff"/>
  <rect x="300" y="125" width="200" height="12" rx="2" fill="rgba(255,255,255,0.9)"/>
  
  <!-- Stats -->
  <g transform="translate(350, 150)">
    <rect width="100" height="35" rx="8" fill="rgba(255,255,255,0.2)" stroke="rgba(255,255,255,0.4)" stroke-width="1.5"/>
    <text x="50" y="23" font-family="Arial" font-size="16" font-weight="bold" fill="#ffffff" text-anchor="middle">6</text>
  </g>
  
  <!-- Products -->
  <g transform="translate(50, 205)">
    <g filter="drop-shadow(0 4px 6px rgba(0,0,0,0.1))">
      <rect width="220" height="280" rx="16" fill="#ffffff"/>
      <rect x="10" y="10" width="200" height="150" rx="12" fill="url(#sunset-hero)" opacity="0.3"/>
      <text x="110" y="95" font-family="Arial" font-size="30" text-anchor="middle">🌅</text>
      <rect x="10" y="170" width="160" height="12" rx="2" fill="#1e293b"/>
      <rect x="10" y="190" width="120" height="16" rx="2" fill="#f97316"/>
      <rect x="10" y="220" width="200" height="40" rx="10" fill="#10b981"/>
    </g>
    
    <g transform="translate(240, 0)" filter="drop-shadow(0 4px 6px rgba(0,0,0,0.1))">
      <rect width="220" height="280" rx="16" fill="#ffffff"/>
      <rect x="10" y="10" width="200" height="150" rx="12" fill="url(#sunset-hero)" opacity="0.3"/>
      <text x="110" y="95" font-family="Arial" font-size="30" text-anchor="middle">🧡</text>
      <rect x="10" y="170" width="170" height="12" rx="2" fill="#1e293b"/>
      <rect x="10" y="190" width="130" height="16" rx="2" fill="#f97316"/>
      <rect x="10" y="220" width="200" height="40" rx="10" fill="#10b981"/>
    </g>
    
    <g transform="translate(480, 0)" filter="drop-shadow(0 4px 6px rgba(0,0,0,0.1))">
      <rect width="220" height="280" rx="16" fill="#ffffff"/>
      <rect x="10" y="10" width="200" height="150" rx="12" fill="url(#sunset-hero)" opacity="0.3"/>
      <text x="110" y="95" font-family="Arial" font-size="30" text-anchor="middle">☀️</text>
      <rect x="10" y="170" width="150" height="12" rx="2" fill="#1e293b"/>
      <rect x="10" y="190" width="110" height="16" rx="2" fill="#f97316"/>
      <rect x="10" y="220" width="200" height="40" rx="10" fill="#10b981"/>
    </g>
  </g>
  
  <!-- Footer -->
  <rect x="0" y="500" width="800" height="100" fill="url(#sunset-nav)"/>
  <rect x="300" y="520" width="200" height="10" rx="2" fill="rgba(255,255,255,0.7)"/>
  <circle cx="360" cy="570" r="12" fill="rgba(255,255,255,0.2)"/>
  <circle cx="400" cy="570" r="12" fill="rgba(255,255,255,0.2)"/>
  <circle cx="440" cy="570" r="12" fill="rgba(255,255,255,0.2)"/>
</svg>
