<svg width="800" height="600" xmlns="http://www.w3.org/2000/svg"><rect width="800" height="600" fill="#0f172a"/><rect width="800" height="60" fill="#1e293b"/><rect y="60" width="800" height="120" fill="#334155"/><g transform="translate(50,205)"><rect width="220" height="280" rx="16" fill="#1e293b" stroke="#3b82f6" stroke-width="1"/><rect x="10" y="10" width="200" height="150" rx="12" fill="#1e3a8a"/><text x="110" y="95" font-size="30" text-anchor="middle">⚡</text><rect x="10" y="220" width="200" height="40" rx="10" fill="#1d4ed8"/></g><g transform="translate(290,205)"><rect width="220" height="280" rx="16" fill="#1e293b" stroke="#3b82f6" stroke-width="1"/><rect x="10" y="10" width="200" height="150" rx="12" fill="#1e3a8a"/><text x="110" y="95" font-size="30" text-anchor="middle">🌩️</text><rect x="10" y="220" width="200" height="40" rx="10" fill="#1d4ed8"/></g><g transform="translate(530,205)"><rect width="220" height="280" rx="16" fill="#1e293b" stroke="#3b82f6" stroke-width="1"/><rect x="10" y="10" width="200" height="150" rx="12" fill="#1e3a8a"/><text x="110" y="95" font-size="30" text-anchor="middle">⛈️</text><rect x="10" y="220" width="200" height="40" rx="10" fill="#1d4ed8"/></g><rect y="500" width="800" height="100" fill="#020617"/></svg>
